<svg version="1.0" xmlns="http://www.w3.org/2000/svg"
 width="24.000000pt" height="24.000000pt" viewBox="0 0 24.000000 24.000000"
 preserveAspectRatio="xMidYMid meet">

<g transform="translate(0.000000,24.000000) scale(0.100000,-0.100000)"
fill="#000000" stroke="none">
<path d="M65 195 c-36 -35 -36 -115 0 -150 32 -33 78 -33 110 0 36 35 36 115
0 150 -15 16 -36 25 -55 25 -19 0 -40 -9 -55 -25z m45 -25 c0 -25 -4 -30 -25
-30 -30 0 -32 13 -5 40 27 27 30 25 30 -10z m60 -1 c14 -26 13 -29 -15 -29
-21 0 -25 5 -25 30 0 22 4 28 15 24 9 -4 20 -15 25 -25z m10 -69 c0 -11 -9
-29 -20 -40 -11 -11 -29 -20 -40 -20 -26 0 -60 34 -60 60 0 18 7 20 60 20 53
0 60 -2 60 -20z"/>
</g>
</svg>
